<svg xmlns="http://www.w3.org/2000/svg" viewBox="0 0 32 32">
  <!-- Dark rounded-square background matching zinc-900 -->
  <rect width="32" height="32" rx="7" fill="#18181b"/>
  <!-- Lucide Sparkles paths scaled to 24×24, centred with 4px margin -->
  <g transform="translate(4,4)"
     stroke="#a78bfa"
     stroke-width="1.75"
     stroke-linecap="round"
     stroke-linejoin="round"
     fill="none">
    <!-- Large star -->
    <path d="M9.937 15.5A2 2 0 0 0 8.5 14.063l-6.135-1.582a.5.5 0 0 1 0-.962L8.5 9.936A2 2 0 0 0 9.937 8.5l1.582-6.135a.5.5 0 0 1 .963 0L14.063 8.5A2 2 0 0 0 15.5 9.937l6.135 1.581a.5.5 0 0 1 0 .964L15.5 14.063a2 2 0 0 0-1.437 1.437l-1.582 6.135a.5.5 0 0 1-.963 0z"/>
    <!-- Small cross top-right -->
    <path d="M20 3v4"/>
    <path d="M22 5h-4"/>
    <!-- Small cross bottom-left -->
    <path d="M4 17v2"/>
    <path d="M5 18H3"/>
  </g>
</svg>
